<svg xmlns="http://www.w3.org/2000/svg" viewBox="0 0 1911.82 1075.4" width="1911.8199462890625" height="1075.4000244140625"><defs><style>.cls-1{fill:#2d5380;}.cls-2{font-size:328.51px;font-family:Montserrat-Thin, Montserrat;font-weight:200;}.cls-3{letter-spacing:-0.01em;}.cls-4{letter-spacing:-0.02em;}</style></defs><title>Logo Artica SVG</title><g id="Camada_2" data-name="Camada 2"><polygon points="721.86 396.89 618.47 119.64 590.98 118.59 357.59 622.46 385.08 623.51 603.62 147.84 695.62 396.89 721.86 396.89" class="svg-elem-1"></polygon><polygon class="cls-1 svg-elem-2" points="603.33 340.22 706.73 617.46 734.21 618.52 967.6 114.65 940.11 113.59 721.57 589.27 629.57 340.22 603.33 340.22"></polygon><polygon class="cls-1 svg-elem-3" points="1307.85 340.22 1204.46 617.46 1176.97 618.52 943.58 114.65 971.07 113.59 1189.62 589.27 1281.62 340.22 1307.85 340.22"></polygon><polygon points="1189.32 396.89 1292.72 119.64 1320.2 118.59 1553.59 622.46 1526.1 623.51 1307.56 147.84 1215.56 396.89 1189.32 396.89" class="svg-elem-4"></polygon><text class="cls-2" transform="translate(358.31 962.44) scale(1.01 1)">A<tspan class="cls-3" x="226.01" y="0">R</tspan><tspan x="457.93" y="0">TI</tspan><tspan class="cls-4" x="731.9" y="0">C</tspan><tspan x="958.9" y="0">A</tspan></text></g></svg>